<svg xmlns="http://www.w3.org/2000/svg" version="1.1" xmlns:xlink="http://www.w3.org/1999/xlink" xmlns:svgjs="http://svgjs.dev/svgjs" width="150" height="59" viewBox="0 0 1000 199"><g transform="matrix(1,0,0,1,-0.5997616893887425,-0.254704490035806)"><svg viewBox="0 0 396 79" data-background-color="#ffffff" preserveAspectRatio="xMidYMid meet" height="199" width="1000" xmlns="http://www.w3.org/2000/svg" xmlns:xlink="http://www.w3.org/1999/xlink"><g id="tight-bounds" transform="matrix(1,0,0,1,0.23750562899795113,0.10111384277803381)"><svg viewBox="0 0 395.52 78.79777231444396" height="78.79777231444396" width="395.52"><g><svg viewBox="0 0 656.607550092009 130.81313772273205" height="78.79777231444396" width="395.52"><g><svg viewBox="0 0 395.52 130.81313772273205" height="130.81313772273205" width="395.52"><g id="textblocktransform"><svg viewBox="0 0 395.52 130.81313772273205" height="130.81313772273205" width="395.52" id="textblock"><g><svg viewBox="0 0 395.52 70.55435576682513" height="70.55435576682513" width="395.52"><g transform="matrix(1,0,0,1,0,0)"><svg width="395.52" viewBox="2.95 -35.15 200.39000000000001 35.65" height="70.55435576682513" data-palette-color="#152232"><g class="undefined-text-0" data-fill-palette-color="primary" id="text-0"><path d="M25-3.85L25.15-0.55Q20 0.5 15.9 0.5 11.8 0.5 9.28-0.63 6.75-1.75 5.38-4.13 4-6.5 3.48-9.58 2.95-12.65 2.95-17.25 2.95-21.85 3.48-24.98 4-28.1 5.38-30.5 6.75-32.9 9.25-34 11.75-35.1 15.75-35.1 19.75-35.1 25.15-34L25.15-34 25-30.75Q19.95-31.65 16-31.65L16-31.65Q10.5-31.65 8.72-28.38 6.95-25.1 6.95-17.2L6.95-17.2Q6.95-13.25 7.28-10.85 7.6-8.45 8.55-6.53 9.5-4.6 11.33-3.78 13.15-2.95 16.68-2.95 20.2-2.95 25-3.85L25-3.85ZM34-17.15Q34-9.55 36-6.23 38-2.9 43.72-2.9 49.45-2.9 51.42-6.15 53.4-9.4 53.4-17.05 53.4-24.7 51.35-28.2 49.3-31.7 43.67-31.7 38.05-31.7 36.02-28.23 34-24.75 34-17.15ZM57.4-17.05Q57.4-7.8 54.45-3.65 51.5 0.5 43.72 0.5 35.95 0.5 33-3.75 30.05-8 30.05-17.13 30.05-26.25 33.05-30.68 36.05-35.1 43.7-35.1 51.35-35.1 54.37-30.7 57.4-26.3 57.4-17.05ZM68.3 0L64.45 0 64.45-34.6 71.65-34.6 84.9-3.4 85.95-3.4 85.95-34.6 89.75-34.6 89.75 0 82.7 0 69.25-31.2 68.3-31.2 68.3 0ZM107.79-31.75L107.79-31.75Q100.29-31.75 100.29-26.1L100.29-26.1Q100.29-22.95 102.02-21.78 103.74-20.6 109.02-19.43 114.29-18.25 116.49-16.38 118.69-14.5 118.69-10.2L118.69-10.2Q118.69 0.45 107.64 0.45L107.64 0.45Q103.99 0.45 98.49-0.4L98.49-0.4 96.69-0.65 97.09-3.85Q103.89-2.95 107.44-2.95L107.44-2.95Q114.84-2.95 114.84-9.9L114.84-9.9Q114.84-12.7 113.22-13.93 111.59-15.15 107.14-16L107.14-16Q101.29-17.25 98.84-19.23 96.39-21.2 96.39-25.85L96.39-25.85Q96.39-35.15 107.54-35.15L107.54-35.15Q111.19-35.15 116.29-34.4L116.29-34.4 117.99-34.15 117.64-30.9Q110.69-31.75 107.79-31.75ZM127.89-17.15Q127.89-9.55 129.89-6.23 131.89-2.9 137.62-2.9 143.34-2.9 145.31-6.15 147.29-9.4 147.29-17.05 147.29-24.7 145.24-28.2 143.19-31.7 137.56-31.7 131.94-31.7 129.91-28.23 127.89-24.75 127.89-17.15ZM151.29-17.05Q151.29-7.8 148.34-3.65 145.39 0.5 137.62 0.5 129.84 0.5 126.89-3.75 123.94-8 123.94-17.13 123.94-26.25 126.94-30.68 129.94-35.1 137.59-35.1 145.24-35.1 148.27-30.7 151.29-26.3 151.29-17.05ZM177.39-3.45L177.39 0 158.34 0 158.34-34.6 162.19-34.6 162.19-3.45 177.39-3.45ZM203.34 0L182.29 0 182.29-34.6 203.34-34.6 203.34-31.2 186.14-31.2 186.14-19.25 200.34-19.25 200.34-15.9 186.14-15.9 186.14-3.4 203.34-3.4 203.34 0Z" fill="#152232" data-fill-palette-color="primary"></path></g></svg></g></svg></g><g transform="matrix(1,0,0,1,323.91401939592623,87.21054585883414)"><svg viewBox="0 0 71.60598060407375 43.60259186389793" height="43.60259186389793" width="71.60598060407375"><g transform="matrix(1,0,0,1,0,0)"><svg width="71.60598060407375" viewBox="1.5 -34.1 76.19 46.400000000000006" height="43.60259186389793" data-palette-color="#5ebc67"><path d="M1.5-2.33L1.5-2.33Q1.5-3.5 2.33-4.35 3.15-5.2 4.4-5.2L4.4-5.2Q5.65-5.2 6.53-4.35 7.4-3.5 7.4-2.33L7.4-2.33Q7.4-1.15 6.53-0.35 5.65 0.45 4.4 0.45L4.4 0.45Q3.15 0.45 2.33-0.36 1.5-1.18 1.5-2.33ZM17.87 0L13.97 0 13.97-34.1 17.87-34.1 17.87 0ZM36.62 0.6L36.62 0.6Q33.39 0.6 30.88-0.83 28.37-2.25 26.92-5.05 25.47-7.85 25.47-11.95L25.47-11.95Q25.47-16.07 26.92-18.86 28.37-21.65 30.88-23.08 33.39-24.5 36.62-24.5L36.62-24.5Q39.82-24.5 42.33-23.08 44.84-21.65 46.28-18.86 47.72-16.07 47.72-11.95L47.72-11.95Q47.72-7.85 46.28-5.05 44.84-2.25 42.33-0.83 39.82 0.6 36.62 0.6ZM36.52-2.8L36.52-2.8Q38.84-2.8 40.47-3.91 42.09-5.03 42.93-7.08 43.77-9.13 43.77-11.95L43.77-11.95Q43.77-16.23 41.99-18.69 40.22-21.15 36.72-21.15L36.72-21.15Q34.37-21.15 32.76-20.04 31.14-18.93 30.31-16.86 29.47-14.8 29.47-11.95L29.47-11.95Q29.47-7.73 31.26-5.26 33.05-2.8 36.52-2.8ZM63.74 12.3L63.74 12.3Q60.07 12.3 57.37 11.26 54.67 10.23 53.18 8.49 51.69 6.75 51.69 4.65L51.69 4.65Q51.69 1.88 53.73 0.41 55.77-1.05 58.99-1.05L58.99-1.05 61.14 0.3Q58.44 0.3 56.97 1.43 55.49 2.55 55.49 4.5L55.49 4.5Q55.49 6.45 57.59 7.8 59.69 9.15 63.74 9.15L63.74 9.15Q66.74 9.15 69.01 8.29 71.27 7.43 72.53 6.04 73.79 4.65 73.79 3.05L73.79 3.05Q73.79 1.93 72.97 1.11 72.14 0.3 70.44 0.3L70.44 0.3 61.14 0.3Q58.72 0.3 56.96-0.44 55.19-1.18 54.24-2.38 53.29-3.58 53.29-5L53.29-5Q53.29-6.5 54.14-7.55 54.99-8.6 56.36-9.15 57.72-9.7 59.29-9.7L59.29-9.7 60.04-8.25Q59.29-8.25 58.53-7.91 57.77-7.58 57.26-6.91 56.74-6.25 56.74-5.25L56.74-5.25Q56.74-4.1 57.69-3.33 58.64-2.55 61.14-2.55L61.14-2.55 70.44-2.55Q73.82-2.55 75.76-1.13 77.69 0.3 77.69 2.85L77.69 2.85Q77.69 5.2 76.02 7.36 74.34 9.53 71.22 10.91 68.09 12.3 63.74 12.3ZM64.44-7L64.44-7Q61.69-7 59.48-8.1 57.27-9.2 55.98-11.18 54.69-13.15 54.69-15.75L54.69-15.75Q54.69-18.38 55.98-20.35 57.27-22.33 59.48-23.41 61.69-24.5 64.44-24.5L64.44-24.5Q67.12-24.5 69.31-23.41 71.49-22.33 72.79-20.35 74.09-18.38 74.09-15.75L74.09-15.75Q74.09-13.15 72.79-11.18 71.49-9.2 69.31-8.1 67.12-7 64.44-7ZM64.44-9.8L64.44-9.8Q67.19-9.8 68.72-11.5 70.24-13.2 70.24-15.75L70.24-15.75Q70.24-18.38 68.72-20.01 67.19-21.65 64.44-21.65L64.44-21.65Q61.72-21.65 60.16-20.01 58.59-18.38 58.59-15.75L58.59-15.75Q58.59-13.2 60.16-11.5 61.72-9.8 64.44-9.8ZM72.29-20.7L72.29-20.7 70.44-21.45Q70.44-23.55 71.27-25.14 72.09-26.73 73.62-27.61 75.14-28.5 77.24-28.5L77.24-28.5 76.94-24.65Q74.69-24.65 73.49-23.69 72.29-22.73 72.29-20.7Z" opacity="1" transform="matrix(1,0,0,1,0,0)" fill="#5ebc67" class="undefined-text-1" data-fill-palette-color="secondary" id="text-1"></path></svg></g></svg></g></svg></g></svg></g><g transform="matrix(1,0,0,1,412.176190092009,4.147669128677649)"><svg viewBox="0 0 244.43135999999998 122.51779946537675" height="122.51779946537675" width="244.43135999999998"><g><svg xmlns="http://www.w3.org/2000/svg" xmlns:xlink="http://www.w3.org/1999/xlink" xml:space="preserve" style="shape-rendering:geometricPrecision;text-rendering:geometricPrecision;image-rendering:optimizeQuality;" viewBox="0.0000020000000000575113 0.0000027841116459863258 14.727499 7.381952827609914" x="0" y="0" fill-rule="evenodd" clip-rule="evenodd" width="244.43135999999998" height="122.51779946537675" class="icon-icon-0" data-fill-palette-color="accent" id="icon-0"><g fill="#5ebc67" data-fill-palette-color="accent"><path class="" d="M1.757 3.091c-0.313 0.444-0.296 1.331-0.417 1.95-0.153 0.784-0.711 1.203-1.34 1.534 0.188-0.771 0.348-1.542 0.412-2.313 0.078-0.953-0.06-0.891 0.767-1.575 1.159-0.961 3.04-1.741 5.848-2.29 2.456-0.406 5.049-0.453 7.701-0.351-0.89 1.809-3.733 1.961-7.203 1.581-1.811 0.02-3.495-0.488-5.768 1.464z m8.33 2.781c-3.895 2.038-7.803-2.284-9.165 0.688 2.104-1.831 5.079 3.183 9.165-0.688z m2.489-2.547c-4.49 2.72-9.502-0.792-10.907 1.859 3.412-1.235 7.765 2.753 10.907-1.859z m0.834-1.478c-3.944 1.761-10.043-1.402-11.565 2.239 3.106-1.808 8.446 1.438 11.565-2.239z" fill="#5ebc67" data-fill-palette-color="accent"></path></g></svg></g></svg></g></svg></g><defs></defs></svg><rect width="395.52" height="78.79777231444396" fill="none" stroke="none" visibility="hidden"></rect></g></svg></g></svg>